<svg xmlns="http://www.w3.org/2000/svg" viewBox="0 0 64 64">
  <defs>
    <linearGradient id="bg" x1="0%" y1="0%" x2="100%" y2="100%">
      <stop offset="0%" stop-color="#1D4ED8"/>
      <stop offset="100%" stop-color="#4F46E5"/>
    </linearGradient>
  </defs>
  <rect width="64" height="64" rx="16" fill="url(#bg)"/>
  <!-- brain outline simplified to two lobes -->
  <path d="M32 14 C24 14 18 20 18 27 C18 30 19 32 21 34 C19 36 18 39 18 42 C18 48 23 52 29 51 C30 53 31 54 32 54 C33 54 34 53 35 51 C41 52 46 48 46 42 C46 39 45 36 43 34 C45 32 46 30 46 27 C46 20 40 14 32 14 Z" fill="none" stroke="white" stroke-width="2.8" stroke-linecap="round" stroke-linejoin="round"/>
  <!-- center line -->
  <line x1="32" y1="14" x2="32" y2="54" stroke="white" stroke-width="1.8" stroke-linecap="round" opacity="0.55"/>
  <!-- left lobe detail -->
  <path d="M21 28 Q18 32 21 36" fill="none" stroke="white" stroke-width="1.8" stroke-linecap="round" opacity="0.7"/>
  <path d="M20 34 Q22 38 21 42" fill="none" stroke="white" stroke-width="1.8" stroke-linecap="round" opacity="0.7"/>
  <!-- right lobe detail -->
  <path d="M43 28 Q46 32 43 36" fill="none" stroke="white" stroke-width="1.8" stroke-linecap="round" opacity="0.7"/>
  <path d="M44 34 Q42 38 43 42" fill="none" stroke="white" stroke-width="1.8" stroke-linecap="round" opacity="0.7"/>
</svg>
